<svg width="32" height="32" viewBox="0 0 32 32" fill="none" xmlns="http://www.w3.org/2000/svg">
<circle cx="8.26239" cy="6.38611" r="3.7926" transform="rotate(40 8.26239 6.38611)" fill="#26262E"/>
<circle cx="26.2311" cy="21.4642" r="3.7926" transform="rotate(40 26.2311 21.4642)" fill="#26262E"/>
<circle cx="4.83367" cy="10.472" r="3.7926" transform="rotate(40 4.83367 10.472)" fill="#26262E"/>
<circle cx="22.8425" cy="25.5814" r="3.7926" transform="rotate(40 22.8425 25.5814)" fill="#26262E"/>
<rect x="4.80566" y="10.1367" width="5.33333" height="24" transform="rotate(-50 4.80566 10.1367)" fill="#26262E"/>
<circle cx="5.34314" cy="21.3425" r="3.7926" transform="rotate(-40 5.34314 21.3425)" fill="#26262E"/>
<circle cx="23.3119" cy="6.26434" r="3.7926" transform="rotate(-40 23.3119 6.26434)" fill="#26262E"/>
<circle cx="8.77185" cy="25.4284" r="3.7926" transform="rotate(-40 8.77185 25.4284)" fill="#26262E"/>
<circle cx="26.7797" cy="10.319" r="3.7926" transform="rotate(-40 26.7797 10.319)" fill="#26262E"/>
<rect x="8.4375" y="25.3984" width="5.33333" height="24" transform="rotate(-130 8.4375 25.3984)" fill="#26262E"/>
</svg>
