<svg width="87" height="20" viewBox="0 0 87 20" fill="none" xmlns="http://www.w3.org/2000/svg">
<path d="M55.0428 3.89568C55.0999 4.38599 55.0291 4.88264 54.8373 5.33797C54.5908 5.90945 54.2004 6.40382 53.6273 6.47185C53.0543 6.53988 52.5246 6.25641 52.0771 5.81647C51.7484 5.48991 51.2529 4.85948 51.1982 4.24038C51.1502 3.71653 51.3032 3.42852 51.5908 3.02486C51.7525 2.81715 51.9548 2.64399 52.1854 2.51579C52.4161 2.38759 52.6705 2.30697 52.9333 2.27877C53.3558 2.21178 53.7889 2.27097 54.1775 2.44885C54.8761 2.72779 54.9812 3.4444 55.0428 3.89568Z" fill="#26262E"/>
<path d="M60.2388 2.11119C60.1697 2.60007 59.9738 3.0627 59.6704 3.45371C59.2868 3.94581 58.7845 4.32452 58.2092 4.25422C57.6339 4.18392 57.1978 3.76892 56.8782 3.2292C56.6499 2.83007 56.3257 2.09532 56.4216 1.48303C56.5083 0.965977 56.7298 0.723327 57.1065 0.405841C57.3184 0.244612 57.5608 0.127558 57.8194 0.0617003C58.0779 -0.00415695 58.3472 -0.0174595 58.611 0.0225907C59.0369 0.0656426 59.4405 0.232921 59.7708 0.503355C60.3758 0.947835 60.2959 1.65991 60.2388 2.11119Z" fill="#26262E"/>
<path d="M62.0737 3.7146C61.8572 4.15797 61.7589 4.64912 61.7883 5.14102C61.8294 5.76466 62.0326 6.35654 62.5485 6.6196C63.0645 6.88266 63.6581 6.78061 64.2266 6.51075C64.6467 6.31118 65.3247 5.88031 65.5964 5.31564C65.8247 4.83714 65.7677 4.51512 65.633 4.03889C65.549 3.78975 65.4157 3.55985 65.2408 3.36276C65.0659 3.16567 64.853 3.0054 64.6147 2.89141C64.2382 2.68966 63.8101 2.60287 63.3841 2.64195C62.6193 2.6737 62.2837 3.30868 62.0737 3.7146Z" fill="#26262E"/>
<path d="M10.6609 9.67179L10.8732 12.4475C10.8748 12.4717 10.8852 12.4944 10.9024 12.5115C10.9196 12.5286 10.9425 12.5389 10.9668 12.5405C11.5535 12.5609 12.412 12.3659 12.9394 12.5791C13.4142 12.7695 13.8252 12.9827 13.9941 13.5814C14.0307 13.7129 14.4507 14.8922 13.6402 15.4342C12.985 15.8877 11.7088 15.9875 11.1038 16.0782C11.1038 16.0782 11.2339 17.3527 11.275 17.6361C11.3595 18.2122 11.3298 18.677 11.0467 19.1011C10.8302 19.4761 10.4732 19.7508 10.0536 19.8654C9.61665 19.9925 9.15763 20.0265 8.70656 19.9651C8.2487 19.8729 7.83034 19.6434 7.50796 19.3075C7.29792 19.0648 7.1518 18.4231 7.10614 17.8266L7.01938 16.3072C7.01938 16.3072 5.24088 16.4728 4.64272 16.534C3.98977 16.5998 3.25919 16.6905 2.42131 16.7608C2.06815 16.7941 1.7122 16.74 1.38516 16.6035C1.05812 16.467 0.770156 16.2523 0.546921 15.9784C0.318183 15.7246 0.154036 15.4199 0.0682345 15.0901C-0.0175671 14.7602 -0.0225235 14.4147 0.0537806 14.0826L1.6816 4.37204C1.72952 4.11052 1.85169 3.86805 2.0337 3.67319C2.21572 3.47833 2.45001 3.3392 2.70897 3.27218C3.36186 3.13412 4.0339 3.10957 4.69523 3.19961C5.53312 3.31527 5.72946 3.75748 5.70663 4.48316C5.64499 6.39942 4.57423 12.0257 4.36876 12.9328C4.3644 12.9477 4.36366 12.9633 4.3666 12.9785C4.36954 12.9937 4.37607 13.008 4.38566 13.0202C4.39526 13.0324 4.40763 13.0421 4.42176 13.0486C4.43589 13.0551 4.45137 13.0582 4.46693 13.0575L6.85729 12.8761C6.88298 12.8727 6.90629 12.8594 6.92211 12.839C6.93794 12.8186 6.945 12.7928 6.94176 12.7673L6.73857 9.83733C6.69519 9.25906 6.66095 8.39051 7.00112 8.02313C7.2498 7.76936 7.56687 7.5922 7.91434 7.51288C8.31723 7.38205 8.74707 7.35551 9.16317 7.43578C9.40159 7.46087 9.63127 7.53891 9.8352 7.66414C10.0391 7.78937 10.2121 7.95856 10.3412 8.15919C10.6106 8.59234 10.6152 9.07764 10.6609 9.67179Z" fill="#26262E"/>
<path d="M22.003 6.94434C20.9345 6.6019 20.9459 6.50212 20.8203 6.62685C20.6605 6.78559 20.245 8.21428 20.1354 8.96264C20.1319 8.97719 20.1318 8.99235 20.1352 9.00694C20.1385 9.02154 20.1452 9.03517 20.1547 9.04679C20.1641 9.05841 20.1762 9.06771 20.1899 9.07396C20.2036 9.0802 20.2185 9.08324 20.2336 9.08283C20.5235 9.06469 21.2678 9.08283 21.5326 9.08283C22.487 9.05788 23.3591 9.39578 23.5714 10.1691C23.7335 10.727 23.5166 11.3551 23.2701 11.8177C22.8979 12.5162 22.0874 12.7112 21.1902 12.6183C20.9459 12.5933 20.4048 12.582 20.1514 12.5457C20.138 12.5432 20.1243 12.5439 20.1112 12.5475C20.0982 12.5511 20.0861 12.5577 20.076 12.5666C20.0658 12.5756 20.0579 12.5868 20.0528 12.5993C20.0476 12.6117 20.0455 12.6252 20.0464 12.6387C20.1012 13.7499 20.4436 15.2579 20.777 17.0608C20.8531 17.5024 20.762 17.9564 20.5213 18.3353C20.4345 18.4909 20.3163 18.6271 20.1741 18.7352C20.0319 18.8433 19.8687 18.921 19.6948 18.9634C19.3091 19.0995 18.9003 19.1588 18.4916 19.1381C18.12 19.1508 17.7578 19.0209 17.4802 18.7752C17.1323 18.4398 16.9052 17.9998 16.8341 17.5234C16.494 15.7963 16.2887 14.0457 16.22 12.2872C16.22 12.2373 16.1789 12.3371 16.1287 12.3348C15.4873 12.3042 14.862 12.1256 14.3022 11.8132C13.8753 11.4798 13.7885 11.0626 13.8045 10.5795C13.8013 10.0909 13.9877 9.61991 14.325 9.26425C14.6995 8.87646 15.5122 8.83564 16.2793 8.88327C16.3028 8.8853 16.3261 8.8785 16.3447 8.86422C16.3633 8.84993 16.3759 8.8292 16.3798 8.80616C16.6789 6.99196 17.4072 5.19816 18.5647 4.31374C19.7222 3.42931 21.2473 3.21614 23.0052 3.63341C23.4128 3.69468 23.7851 3.89807 24.0554 4.20715C24.2017 4.36067 24.3155 4.54165 24.3904 4.73948C24.4653 4.9373 24.4997 5.14799 24.4915 5.35917C24.4868 5.75263 24.3748 6.13745 24.1673 6.47264C23.9853 6.7476 23.7057 6.94436 23.3842 7.02371C22.9261 7.13487 22.4451 7.10722 22.003 6.94434Z" fill="#26262E"/>
<path d="M25.4347 16.6592C25.1937 15.386 25.0412 14.0979 24.9781 12.804C24.9307 11.7453 25.0856 10.6872 25.4347 9.68582C25.7498 8.71873 26.3683 7.87718 27.1995 7.28426C28.5845 6.32727 30.1827 6.2872 31.9939 7.16407C32.3976 7.34927 32.7455 7.6362 33.003 7.99634C33.3204 8.42041 33.6879 9.14836 33.2085 9.93754C32.245 11.5386 30.6606 11.0351 30.2405 10.7244C29.7451 10.3503 29.4757 10.1847 29.1857 10.3094C28.5784 10.5725 28.6652 12.5953 29.2725 15.9471C29.3547 16.4664 29.4848 17.1649 29.1492 17.5776C28.9625 17.8371 28.7028 18.0359 28.4027 18.1491C28.0182 18.2911 27.6094 18.3566 27.1995 18.3418C26.7738 18.3279 26.3679 18.1602 26.058 17.8701C25.7142 17.5512 25.4937 17.1228 25.4347 16.6592Z" fill="#26262E"/>
<path d="M38.8024 7.97752L38.8595 11.8327C38.8732 12.2863 38.9143 12.7829 38.9257 13.3453C38.9371 13.9077 38.944 14.3749 38.9485 14.7513C38.9531 15.1278 38.96 15.4316 38.9668 15.6788C38.9858 15.9728 38.9396 16.2673 38.8315 16.5415C38.7234 16.8158 38.5561 17.0632 38.3413 17.2663C37.9615 17.636 37.4571 17.8526 36.9258 17.874C36.6444 17.8775 36.3651 17.8244 36.1049 17.7179C35.8447 17.6115 35.6089 17.4538 35.4116 17.2545C35.2143 17.0551 35.0597 16.8182 34.957 16.5579C34.8542 16.2977 34.8056 16.0195 34.8139 15.74C34.8139 15.4951 34.8002 15.1844 34.7957 14.8103C34.7911 14.4361 34.782 13.9712 34.7728 13.4179C34.7637 12.8645 34.7203 12.3634 34.7066 11.9166L34.6495 8.06143C34.6366 7.77296 34.6837 7.48495 34.7878 7.21534C34.8919 6.94574 35.0508 6.70033 35.2546 6.49441C35.4358 6.29746 35.6549 6.13853 35.8989 6.02697C36.1429 5.91541 36.407 5.85347 36.6754 5.8448C36.9439 5.83614 37.2114 5.88092 37.4622 5.97652C37.713 6.07211 37.942 6.21659 38.1358 6.40143C38.3621 6.59495 38.5402 6.83804 38.6559 7.11154C38.7715 7.38504 38.8217 7.68148 38.8024 7.97752Z" fill="#26262E"/>
<path d="M75.8654 5.25464C75.9294 6.84207 76.0412 7.37272 75.7376 11.6044C75.6919 12.2348 75.5846 13.2167 75.4545 14.5524C75.3244 15.8881 75.2034 16.9336 75.144 17.4597C75.0687 18.1287 74.797 18.4552 74.2308 18.834C73.243 19.4463 71.7734 19.475 69.8222 18.9201C68.4666 18.5206 67.2906 17.6703 66.4912 16.5118C65.7121 15.4607 65.3467 14.163 65.4638 12.863C65.616 11.271 66.2941 10.0298 67.498 9.1393C68.702 8.24883 70.1274 7.951 71.7742 8.24581C71.787 8.24806 71.8001 8.24771 71.8127 8.24479C71.8254 8.24186 71.8373 8.23642 71.8477 8.22879C71.8582 8.22115 71.867 8.21149 71.8736 8.20038C71.8802 8.18927 71.8844 8.17695 71.8861 8.16417C71.8861 8.16417 71.8861 7.08245 71.829 5.95764C71.8062 5.461 71.6486 4.0686 71.9957 3.72844C72.3897 3.40418 72.8706 3.20158 73.3792 3.14562C73.8291 3.09402 74.2848 3.12399 74.7239 3.23406C75.0857 3.33626 75.3924 3.57576 75.5778 3.90078C75.8312 4.26816 75.8403 4.65595 75.8654 5.25464ZM71.2993 16.1081C71.2993 16.1081 71.4432 15.4278 71.5459 14.6205C71.6372 13.8903 71.7057 13.033 71.7148 12.7836C71.7377 12.0874 71.7148 11.398 71.7148 11.398C71.7183 11.3726 71.712 11.3468 71.6972 11.3258C71.6824 11.3048 71.6602 11.2901 71.6349 11.2846C70.829 11.1417 69.7902 11.4501 69.3519 12.3777C69.0943 12.9397 69.0434 13.5737 69.208 14.1692C69.5414 15.4051 70.6418 16.0015 71.1669 16.192C71.1812 16.1969 71.1964 16.1985 71.2114 16.1967C71.2264 16.1949 71.2407 16.1898 71.2535 16.1817C71.2662 16.1737 71.2769 16.1629 71.2849 16.1501C71.2928 16.1374 71.2977 16.123 71.2993 16.1081Z" fill="#26262E"/>
<path d="M83.1598 12.6323L82.4748 12.3556C81.9657 12.1289 81.1918 11.7932 81.0753 12.1697C80.9383 12.6232 81.4908 12.8296 81.7488 12.9725C82.081 13.1449 82.4269 13.2898 82.7831 13.4056C83.2145 13.5553 83.7328 13.68 84.1689 13.8592C84.6361 14.0475 85.0653 14.3179 85.436 14.6574C85.7873 14.9878 86.0327 15.4138 86.1414 15.882C86.2647 16.3779 86.1886 16.9622 85.9131 17.635C85.5644 18.4766 84.9042 19.1534 84.0684 19.5263C83.1999 19.9268 82.236 20.0783 81.2854 19.964C80.254 19.8472 79.2424 19.5971 78.2763 19.2201C77.4453 18.8845 77.0199 18.3554 77.0001 17.6327C76.9773 17.3558 77.0335 17.078 77.1623 16.8313C77.2911 16.5847 77.4873 16.379 77.7284 16.238C78.2284 15.9138 78.7809 15.9863 79.4247 16.2516C79.9759 16.4727 80.5401 16.6605 81.1141 16.8141C81.5959 16.9365 82.1826 17.0794 82.2853 16.6689C82.3721 16.3265 81.8995 16.0589 81.6461 15.9319C81.3145 15.7747 80.97 15.6457 80.6164 15.5464C80.0785 15.407 79.5513 15.2296 79.0388 15.0157C78.5822 14.7889 78.2558 14.73 77.911 14.3921C77.553 14.0263 77.3211 13.557 77.2489 13.0518C77.1676 12.3778 77.2742 11.6946 77.5571 11.0766C77.8729 10.2599 78.4548 9.57176 79.2101 9.12182C79.9685 8.70154 80.8352 8.51374 81.7009 8.5821C82.7177 8.60785 83.7203 8.82565 84.6552 9.22387C84.8835 9.32819 86.3697 9.86565 86.1346 11.2059C86.0828 11.6203 85.9043 12.0089 85.6232 12.3194C85.2688 12.643 84.8055 12.8234 84.3241 12.8251C83.928 12.8249 83.5345 12.7598 83.1598 12.6323Z" fill="#26262E"/>
<path d="M52.9468 16.4169C52.577 14.5596 52.4902 13.7841 52.5998 12.5776C52.6732 11.485 52.9479 10.415 53.4103 9.42089C53.7844 8.5569 54.4236 7.8323 55.2367 7.35043C56.1126 6.82231 57.1328 6.57966 58.1545 6.6565C59.3668 6.70412 60.6658 6.94677 61.5471 7.52958C62.4049 8.07988 63.0645 8.88672 63.4306 9.83362C64.2799 11.954 63.6384 15.3488 63.3005 16.5938C63.022 18.4692 61.7229 18.5849 61.2937 18.5554C60.2366 18.4874 59.6567 17.9204 59.5083 17.6188C59.3599 17.3172 59.3394 16.9136 59.3759 16.401C59.4124 15.8885 59.4558 15.4939 59.4672 15.2558C59.538 14.426 59.5425 13.5919 59.4809 12.7613C59.3896 11.4006 58.8622 10.6251 58.2344 10.6001C57.6066 10.5752 56.9193 11.2646 56.7641 12.5663C56.6275 13.7713 56.6145 14.987 56.7253 16.1947C56.7778 16.6868 56.8029 17.3286 56.5312 17.6846C55.9924 18.3944 55.1203 18.2765 54.6842 18.2266C54.2463 18.1763 53.8391 17.9777 53.5313 17.6642C53.2111 17.3186 53.0069 16.8828 52.9468 16.4169Z" fill="#26262E"/>
<path d="M45.7483 14.1612C45.7315 14.1688 45.7175 14.1815 45.7085 14.1976C45.6995 14.2136 45.6958 14.2321 45.6981 14.2503C45.7004 14.2686 45.7085 14.2856 45.7213 14.2989C45.734 14.3123 45.7507 14.3212 45.7689 14.3244C46.4104 14.3947 47.6889 14.5512 48.4606 14.5104C49.0245 14.4764 50.4126 14.2428 51.0953 14.88C51.4925 15.2497 51.3989 16.0956 51.1797 16.599C50.9606 17.1025 50.6021 17.5197 49.5451 17.7329C47.4584 18.0776 44.9333 17.4494 43.7781 17.0027C42.1799 16.3836 41.4265 15.5626 40.8329 14.0841C40.308 12.711 40.3235 11.1919 40.8763 9.82976C41.4219 8.52126 42.3603 7.37604 43.7073 6.88167C44.488 6.56747 45.3274 6.4231 46.169 6.45831C47.0106 6.49352 47.8348 6.70747 48.5862 7.08577C50.0154 7.7661 50.7323 8.83874 50.6295 10.4352C50.504 12.4808 48.4994 13.2223 45.7483 14.1612ZM43.721 11.8526C43.721 11.9252 43.7758 11.9751 43.8488 11.9592C44.4196 11.8435 46.9401 11.0249 47.2072 10.1835C47.2499 10.0317 47.2576 9.87235 47.2299 9.71718C47.2021 9.56201 47.1395 9.41505 47.0467 9.28719C46.954 9.15933 46.8334 9.05385 46.694 8.97857C46.5546 8.9033 46.4 8.86016 46.2415 8.85235C45.5444 8.84876 44.8728 9.11282 44.3671 9.58937C43.6685 10.2243 43.6388 11.1632 43.721 11.8526Z" fill="#26262E"/>
<path d="M38.6696 2.22746C38.6005 2.74795 38.3968 3.24175 38.0783 3.66069C37.681 4.19134 37.1445 4.59954 36.5395 4.54284C35.9345 4.48615 35.4573 4.03713 35.1126 3.46566C34.8591 3.04386 34.5098 2.26602 34.6149 1.6129C34.7016 1.05957 34.9345 0.801045 35.3363 0.458614C35.5557 0.284948 35.808 0.156903 36.0783 0.0821008C36.3485 0.00729889 36.6311 -0.0127306 36.9093 0.0232048C37.3632 0.0621889 37.7949 0.23515 38.149 0.519843C38.7997 0.984733 38.7221 1.74443 38.6696 2.22746Z" fill="#26262E"/>
</svg>
